<svg xmlns="http://www.w3.org/2000/svg" class="css-1d6k1hz" id="bcffbdga" viewBox="0 -5 70 75" preserveAspectRatio="xMidYMid meet">
    <defs id="SvgjsDefs1957" />
    <g id="SvgjsG1958" fill="#ffffff" featurekey="root" />
    <g id="SvgjsG1959" fill="#26a8e5" transform="matrix(1.02029, 0, 0, 1.02029, -8.15211, -12.8658)" featurekey="symbol1"><path d="M 71.746 37.496 H 58.865 V 19.087 c 0 -3.571 -2.906 -6.477 -6.478 -6.477 h -37.92 c -3.571 0 -6.477 2.906 -6.477 6.477 v 30.099 c 0 3.571 2.905 6.478 6.477 6.478 h 6.032 l -7.153 13.412 l 21.459 -13.412 h 6.56 v 6.947 c 0 2.675 2.176 4.851 4.851 4.851 h 11.696 l 15.886 9.928 l -5.296 -9.928 h 3.244 c 2.675 0 4.852 -2.176 4.852 -4.851 V 42.346 C 76.597 39.671 74.42 37.496 71.746 37.496 Z M 33.945 52.664 l -12.668 7.918 l 4.223 -7.918 H 14.467 c -1.917 0 -3.477 -1.56 -3.477 -3.478 V 19.087 c 0 -1.917 1.56 -3.477 3.477 -3.477 h 37.92 c 1.918 0 3.478 1.56 3.478 3.477 v 18.408 v 1.5 v 10.191 c 0 1.918 -1.56 3.478 -3.478 3.478 h -9.522 h -1.5 H 33.945 Z M 73.597 62.611 c 0 1.021 -0.831 1.851 -1.852 1.851 h -8.244 l 2.364 4.434 l -7.093 -4.434 H 46.215 c -1.021 0 -1.851 -0.83 -1.851 -1.851 v -6.947 h 8.022 c 3.571 0 6.478 -2.906 6.478 -6.478 v -8.691 h 12.881 c 1.021 0 1.852 0.83 1.852 1.851 V 62.611 Z" /></g>
</svg>